# xmcd
# Track frame offsets:
# 150
# 35208
# 79025
# 119518
# 154738
# 167423
# 225527
# 279584
#
# Disc length: 4410 seconds
# Revision: 0
# Processed by: cddbd v1.5.1PL0 Copyright (c) Steve Scherf et al.
# Submitted via: VisiTrax 2.9.10.228 - For more info visit www.synapsa.com
#
DISCID=61113808
DTITLE=Hary Wetterstein - Goairit
DYEAR=1900
DGENRE=
TTITLE0=Schräg
TTITLE1=Wirwoine
TTITLE2=Selesa
TTITLE3=Zucker
TTITLE4=Frontera
TTITLE5=Natural High
TTITLE6=Alkohol
TTITLE7=Hölle
EXTD=
EXTT0=
EXTT1=
EXTT2=
EXTT3=
EXTT4=
EXTT5=
EXTT6=
EXTT7=
PLAYORDER=
